<?xml version="1.0" standalone="no"?><!DOCTYPE svg PUBLIC "-//W3C//DTD SVG 1.1//EN" "http://www.w3.org/Graphics/SVG/1.1/DTD/svg11.dtd"><svg t="1525745936766" class="icon" style="" viewBox="0 0 1024 1024" version="1.1" xmlns="http://www.w3.org/2000/svg" p-id="7124" xmlns:xlink="http://www.w3.org/1999/xlink" width="32" height="32"><defs><style type="text/css"></style></defs><path d="M749.860571 749.519238a33.01181 33.01181 0 0 1-20.48 6.631619 34.328381 34.328381 0 0 1-25.209904-10.678857 34.767238 34.767238 0 0 1-10.581334-25.35619 34.962286 34.962286 0 0 1 15.311238-29.403429l0.731429-0.780191c13.653333-9.264762 26.331429-20.333714 38.034286-33.060571 11.702857-12.775619 21.942857-26.624 30.671238-41.593905 8.777143-14.921143 15.60381-30.866286 20.48-47.786666 4.87619-16.920381 7.314286-34.425905 7.314286-52.565334 0-36.815238-9.264762-70.41219-27.794286-100.790857a249.222095 249.222095 0 0 0-69.436953-75.044571 34.474667 34.474667 0 0 1-15.311238-29.403429c0-9.801143 3.510857-18.236952 10.581334-25.35619a34.328381 34.328381 0 0 1 25.209904-10.678857c8.289524 0 15.60381 2.681905 21.942858 8.094476 18.041905 12.726857 34.816 27.599238 50.419809 44.519619a286.622476 286.622476 0 0 1 66.511238 118.784c6.339048 22.528 9.45981 45.83619 9.45981 69.875809 0 24.478476-3.169524 48.030476-9.508572 70.607238-6.339048 22.528-15.213714 43.885714-26.672762 63.975619a303.542857 303.542857 0 0 1-91.672381 100.010667z m-40.96-330.215619c10.24 14.189714 18.432 28.525714 24.478477 43.008 6.095238 14.482286 9.167238 31.98781 9.167238 52.614095 0 19.602286-3.169524 37.254095-9.508572 52.955429-6.339048 15.652571-14.384762 29.891048-24.137143 42.617905-3.900952 5.412571-7.996952 10.24-12.385523 14.384762a23.405714 23.405714 0 0 1-16.822858 6.241523 29.647238 29.647238 0 0 1-22.28419-9.557333 31.890286 31.890286 0 0 1-9.118476-22.820571c0-3.900952 0.731429-7.801905 2.194286-11.751619h-0.731429c2.438095-5.36381 5.36381-10.532571 8.777143-15.457524 3.413333-4.87619 6.680381-9.947429 9.849905-15.116191 3.169524-5.12 5.851429-11.02019 8.045714-17.603047 2.194286-6.631619 3.267048-14.628571 3.267047-23.893334 0-8.825905-1.072762-16.579048-3.267047-23.210666a93.622857 93.622857 0 0 0-8.045714-18.041905 238.689524 238.689524 0 0 0-9.898667-15.408762c-3.413333-4.87619-6.046476-10.044952-7.996952-15.457524a29.793524 29.793524 0 0 1-2.194286-11.751619c0-8.825905 3.023238-16.432762 9.118476-22.820571a29.647238 29.647238 0 0 1 22.28419-9.557334 23.405714 23.405714 0 0 1 16.822858 6.241524c4.388571 4.193524 8.533333 8.97219 12.385523 14.384762z m-236.007619 436.906667a9022.512762 9022.512762 0 0 0-156.379428-138.288762c-27.745524-23.552-55.491048-46.811429-83.285334-69.87581-5.36381 0.487619-10.727619 0.731429-16.091428 0.731429-4.388571 0.487619-8.97219 0.731429-13.848381 0.731428h-12.434286a44.080762 44.080762 0 0 1-32.182857-12.141714 39.204571 39.204571 0 0 1-12.385524-29.062095V422.960762h0.731429L146.285714 422.229333c0-13.750857 4.242286-25.014857 12.775619-33.840762a42.422857 42.422857 0 0 1 31.792762-13.214476h41.642667c44.860952-38.278095 85.479619-72.606476 122.051048-102.985143 15.60381-13.263238 30.915048-26.136381 46.031238-38.619428 15.11619-12.483048 28.769524-23.893333 40.911238-34.182095 12.190476-10.337524 22.430476-18.919619 30.72-25.746286 8.289524-6.875429 13.360762-11.068952 15.311238-12.53181 14.628571-10.776381 26.428952-15.701333 35.449905-14.677333 9.020952 0.975238 16.091429 5.36381 21.162666 13.214476 5.12 7.801905 8.679619 17.408 10.630095 28.672 1.950476 11.312762 2.925714 21.601524 2.925715 30.915048v595.772952c0 9.264762-1.706667 19.21219-5.12 29.744762-3.413333 10.581333-8.679619 18.919619-15.750095 25.014857a34.133333 34.133333 0 0 1-26.624 7.753143c-10.727619-0.975238-23.161905-8.094476-37.302858-21.357714z" p-id="7125" fill="#1296db"></path></svg>